<svg width="345" height="307" viewBox="0 0 345 307" fill="none" xmlns="http://www.w3.org/2000/svg">
<path fill-rule="evenodd" clip-rule="evenodd" d="M101.126 0L274.299 7.75012L344.411 163.725L245.497 306.275L71.3815 295.111L0 126.113L101.126 0ZM228.085 89.9075L102.58 144.81L209.879 227.876L228.085 89.9075ZM213.555 62.3961L113.255 19.1559L92.1862 110.07L213.555 62.3961ZM188.132 248.776L79.1264 170.841L81.7631 276.447L188.132 248.776ZM327 163.381L252.718 87.9098L233.112 233.037L327 163.381ZM213.689 265.751L121.757 289.809L229.869 296.741L213.689 265.751ZM312.483 197.622L232.01 257.645L248 288.934L312.483 197.622ZM274.419 29.5428L258.789 61.67L316.967 120.883L274.419 29.5428ZM254.944 14.1688L152.782 10.0167L237.054 46.9231L254.944 14.1688ZM86.2067 29.0257L14.6486 119.497L62.491 129.643L86.2067 29.0257ZM59.6063 147.39L11.5332 137.2L61.6937 255.519L59.6063 147.39Z" fill="white"/>
</svg>
